<?xml version="1.0" encoding="UTF-8" standalone="no"?>
<!DOCTYPE svg PUBLIC "-//W3C//DTD SVG 1.1//EN"
 "http://www.w3.org/Graphics/SVG/1.1/DTD/svg11.dtd">
<!-- Generated by graphviz version 2.36.0 (20140111.2315)
 -->
<!-- Title: controllers_diagram Pages: 1 -->
<svg width="436pt" height="448pt"
 viewBox="0.00 0.00 436.00 448.00" xmlns="http://www.w3.org/2000/svg" xmlns:xlink="http://www.w3.org/1999/xlink">
<g id="graph0" class="graph" transform="scale(1 1) rotate(0) translate(4 444)">
<title>controllers_diagram</title>
<polygon fill="none" stroke="none" points="-4,4 -4,-444 432,-444 432,4 -4,4"/>
<!-- _diagram_info -->
<g id="node1" class="node"><title>_diagram_info</title>
<text text-anchor="start" x="83" y="-213.6" font-family="Times,serif" font-size="13.00">Controllers diagram</text>
<text text-anchor="start" x="83" y="-199.6" font-family="Times,serif" font-size="13.00">Date: Aug 28 2017 &#45; 23:16</text>
<text text-anchor="start" x="83" y="-185.6" font-family="Times,serif" font-size="13.00">Migration version: 20170828222531</text>
<text text-anchor="start" x="83" y="-171.6" font-family="Times,serif" font-size="13.00">Generated by RailRoady 1.5.3</text>
<text text-anchor="start" x="83" y="-157.6" font-family="Times,serif" font-size="13.00">http://railroady.prestonlee.com</text>
</g>
<!-- RegistrationsController -->
<g id="node2" class="node"><title>RegistrationsController</title>
<path fill="none" stroke="black" d="M267,-255.5C267,-255.5 386,-255.5 386,-255.5 392,-255.5 398,-261.5 398,-267.5 398,-267.5 398,-381.5 398,-381.5 398,-387.5 392,-393.5 386,-393.5 386,-393.5 267,-393.5 267,-393.5 261,-393.5 255,-387.5 255,-381.5 255,-381.5 255,-267.5 255,-267.5 255,-261.5 261,-255.5 267,-255.5"/>
<text text-anchor="middle" x="326.5" y="-378.3" font-family="Times,serif" font-size="14.00">RegistrationsController</text>
<polyline fill="none" stroke="black" points="255,-370.5 398,-370.5 "/>
<text text-anchor="start" x="263" y="-355.3" font-family="Times,serif" font-size="14.00">create</text>
<text text-anchor="start" x="263" y="-340.3" font-family="Times,serif" font-size="14.00">index</text>
<text text-anchor="start" x="263" y="-325.3" font-family="Times,serif" font-size="14.00">new</text>
<text text-anchor="start" x="263" y="-310.3" font-family="Times,serif" font-size="14.00">toggle_open</text>
<polyline fill="none" stroke="black" points="255,-302.5 398,-302.5 "/>
<polyline fill="none" stroke="black" points="255,-278.5 398,-278.5 "/>
<text text-anchor="start" x="263" y="-263.3" font-family="Times,serif" font-size="14.00">_layout</text>
</g>
<!-- ApplicationController -->
<g id="node3" class="node"><title>ApplicationController</title>
<path fill="none" stroke="black" d="M102,-300.5C102,-300.5 214,-300.5 214,-300.5 220,-300.5 226,-306.5 226,-312.5 226,-312.5 226,-427.5 226,-427.5 226,-433.5 220,-439.5 214,-439.5 214,-439.5 102,-439.5 102,-439.5 96,-439.5 90,-433.5 90,-427.5 90,-427.5 90,-312.5 90,-312.5 90,-306.5 96,-300.5 102,-300.5"/>
<text text-anchor="middle" x="158" y="-424.3" font-family="Times,serif" font-size="14.00">ApplicationController</text>
<polyline fill="none" stroke="black" points="90,-416.5 226,-416.5 "/>
<polyline fill="none" stroke="black" points="90,-392.5 226,-392.5 "/>
<polyline fill="none" stroke="black" points="90,-368.5 226,-368.5 "/>
<text text-anchor="start" x="98" y="-353.3" font-family="Times,serif" font-size="14.00">_layout</text>
<text text-anchor="start" x="98" y="-338.3" font-family="Times,serif" font-size="14.00">auth_student</text>
<text text-anchor="start" x="98" y="-323.3" font-family="Times,serif" font-size="14.00">auth_teacher</text>
<text text-anchor="start" x="98" y="-308.3" font-family="Times,serif" font-size="14.00">get_user</text>
</g>
<!-- HomeController -->
<g id="node4" class="node"><title>HomeController</title>
<path fill="none" stroke="black" d="M147,-30.5C147,-30.5 229,-30.5 229,-30.5 235,-30.5 241,-36.5 241,-42.5 241,-42.5 241,-111.5 241,-111.5 241,-117.5 235,-123.5 229,-123.5 229,-123.5 147,-123.5 147,-123.5 141,-123.5 135,-117.5 135,-111.5 135,-111.5 135,-42.5 135,-42.5 135,-36.5 141,-30.5 147,-30.5"/>
<text text-anchor="middle" x="188" y="-108.3" font-family="Times,serif" font-size="14.00">HomeController</text>
<polyline fill="none" stroke="black" points="135,-100.5 241,-100.5 "/>
<text text-anchor="start" x="143" y="-85.3" font-family="Times,serif" font-size="14.00">index</text>
<polyline fill="none" stroke="black" points="135,-77.5 241,-77.5 "/>
<polyline fill="none" stroke="black" points="135,-53.5 241,-53.5 "/>
<text text-anchor="start" x="143" y="-38.3" font-family="Times,serif" font-size="14.00">_layout</text>
</g>
<!-- UsersController -->
<g id="node5" class="node"><title>UsersController</title>
<path fill="none" stroke="black" d="M12,-0.5C12,-0.5 91,-0.5 91,-0.5 97,-0.5 103,-6.5 103,-12.5 103,-12.5 103,-111.5 103,-111.5 103,-117.5 97,-123.5 91,-123.5 91,-123.5 12,-123.5 12,-123.5 6,-123.5 0,-117.5 0,-111.5 0,-111.5 0,-12.5 0,-12.5 0,-6.5 6,-0.5 12,-0.5"/>
<text text-anchor="middle" x="51.5" y="-108.3" font-family="Times,serif" font-size="14.00">UsersController</text>
<polyline fill="none" stroke="black" points="0,-100.5 103,-100.5 "/>
<text text-anchor="start" x="8" y="-85.3" font-family="Times,serif" font-size="14.00">edit_role</text>
<text text-anchor="start" x="8" y="-70.3" font-family="Times,serif" font-size="14.00">index</text>
<text text-anchor="start" x="8" y="-55.3" font-family="Times,serif" font-size="14.00">update_role</text>
<polyline fill="none" stroke="black" points="0,-47.5 103,-47.5 "/>
<polyline fill="none" stroke="black" points="0,-23.5 103,-23.5 "/>
<text text-anchor="start" x="8" y="-8.3" font-family="Times,serif" font-size="14.00">_layout</text>
</g>
<!-- KlassesController -->
<g id="node6" class="node"><title>KlassesController</title>
<path fill="none" stroke="black" d="M327,-75.5C327,-75.5 416,-75.5 416,-75.5 422,-75.5 428,-81.5 428,-87.5 428,-87.5 428,-186.5 428,-186.5 428,-192.5 422,-198.5 416,-198.5 416,-198.5 327,-198.5 327,-198.5 321,-198.5 315,-192.5 315,-186.5 315,-186.5 315,-87.5 315,-87.5 315,-81.5 321,-75.5 327,-75.5"/>
<text text-anchor="middle" x="371.5" y="-183.3" font-family="Times,serif" font-size="14.00">KlassesController</text>
<polyline fill="none" stroke="black" points="315,-175.5 428,-175.5 "/>
<text text-anchor="start" x="323" y="-160.3" font-family="Times,serif" font-size="14.00">create</text>
<text text-anchor="start" x="323" y="-145.3" font-family="Times,serif" font-size="14.00">index</text>
<text text-anchor="start" x="323" y="-130.3" font-family="Times,serif" font-size="14.00">new</text>
<polyline fill="none" stroke="black" points="315,-122.5 428,-122.5 "/>
<polyline fill="none" stroke="black" points="315,-98.5 428,-98.5 "/>
<text text-anchor="start" x="323" y="-83.3" font-family="Times,serif" font-size="14.00">_layout</text>
</g>
</g>
</svg>
