<?xml version="1.0" encoding="UTF-8" standalone="no"?>
<!DOCTYPE svg PUBLIC "-//W3C//DTD SVG 1.1//EN"
 "http://www.w3.org/Graphics/SVG/1.1/DTD/svg11.dtd">
<!-- Generated by graphviz version 2.36.0 (20140111.2315)
 -->
<!-- Title: models_diagram Pages: 1 -->
<svg width="546pt" height="158pt"
 viewBox="0.00 0.00 546.00 158.00" xmlns="http://www.w3.org/2000/svg" xmlns:xlink="http://www.w3.org/1999/xlink">
<g id="graph0" class="graph" transform="scale(1 1) rotate(0) translate(4 154)">
<title>models_diagram</title>
<polygon fill="none" stroke="none" points="-4,4 -4,-154 542,-154 542,4 -4,4"/>
<!-- _diagram_info -->
<g id="node1" class="node"><title>_diagram_info</title>
<text text-anchor="start" x="8" y="-135.6" font-family="Times,serif" font-size="13.00">Models diagram</text>
<text text-anchor="start" x="8" y="-121.6" font-family="Times,serif" font-size="13.00">Date: Aug 28 2017 &#45; 23:16</text>
<text text-anchor="start" x="8" y="-107.6" font-family="Times,serif" font-size="13.00">Migration version: 20170828222531</text>
<text text-anchor="start" x="8" y="-93.6" font-family="Times,serif" font-size="13.00">Generated by RailRoady 1.5.3</text>
<text text-anchor="start" x="8" y="-79.6" font-family="Times,serif" font-size="13.00">http://railroady.prestonlee.com</text>
</g>
<!-- ApplicationRecord -->
<g id="node2" class="node"><title>ApplicationRecord</title>
<ellipse fill="none" stroke="black" cx="309" cy="-111" rx="77.0154" ry="18"/>
<text text-anchor="middle" x="309" y="-107.3" font-family="Times,serif" font-size="14.00">ApplicationRecord</text>
</g>
<!-- Klass -->
<g id="node3" class="node"><title>Klass</title>
<ellipse fill="none" stroke="black" cx="435" cy="-111" rx="30.3206" ry="18"/>
<text text-anchor="middle" x="435" y="-107.3" font-family="Times,serif" font-size="14.00">Klass</text>
</g>
<!-- Registration -->
<g id="node4" class="node"><title>Registration</title>
<ellipse fill="none" stroke="black" cx="473" cy="-18" rx="53.4184" ry="18"/>
<text text-anchor="middle" x="473" y="-14.3" font-family="Times,serif" font-size="14.00">Registration</text>
</g>
<!-- Klass&#45;&gt;Registration -->
<g id="edge1" class="edge"><title>Klass&#45;&gt;Registration</title>
<path fill="none" stroke="#c581d7" d="M445.213,-85.5428C450.387,-73.1516 456.677,-58.0901 461.962,-45.4323"/>
<ellipse fill="none" stroke="#c581d7" cx="443.511" cy="-89.6181" rx="4.00001" ry="4.00001"/>
<polygon fill="#c581d7" stroke="#c581d7" points="462.092,-45.1209 470.098,-37.6272 464.019,-40.507 465.946,-35.8932 465.946,-35.8932 465.946,-35.8932 464.019,-40.507 461.793,-34.1591 462.092,-45.1209 462.092,-45.1209"/>
</g>
<!-- User -->
<g id="node5" class="node"><title>User</title>
<ellipse fill="none" stroke="black" cx="511" cy="-111" rx="26.949" ry="18"/>
<text text-anchor="middle" x="511" y="-107.3" font-family="Times,serif" font-size="14.00">User</text>
</g>
<!-- User&#45;&gt;Registration -->
<g id="edge2" class="edge"><title>User&#45;&gt;Registration</title>
<path fill="none" stroke="#65698d" d="M500.787,-85.5428C495.613,-73.1516 489.323,-58.0901 484.038,-45.4323"/>
<ellipse fill="none" stroke="#65698d" cx="502.489" cy="-89.6181" rx="4.00001" ry="4.00001"/>
<polygon fill="#65698d" stroke="#65698d" points="483.908,-45.1209 484.207,-34.1591 481.981,-40.507 480.054,-35.8932 480.054,-35.8932 480.054,-35.8932 481.981,-40.507 475.902,-37.6272 483.908,-45.1209 483.908,-45.1209"/>
</g>
</g>
</svg>
