<?xml version="1.0" encoding="UTF-8" standalone="no"?>
<!DOCTYPE svg PUBLIC "-//W3C//DTD SVG 1.1//EN"
 "http://www.w3.org/Graphics/SVG/1.1/DTD/svg11.dtd">
<!-- Generated by graphviz version 2.36.0 (20140111.2315)
 -->
<!-- Title: models_diagram Pages: 1 -->
<svg width="987pt" height="454pt"
 viewBox="0.00 0.00 987.00 454.00" xmlns="http://www.w3.org/2000/svg" xmlns:xlink="http://www.w3.org/1999/xlink">
<g id="graph0" class="graph" transform="scale(1 1) rotate(0) translate(4 450)">
<title>models_diagram</title>
<polygon fill="none" stroke="none" points="-4,4 -4,-450 983,-450 983,4 -4,4"/>
<!-- _diagram_info -->
<g id="node1" class="node"><title>_diagram_info</title>
<text text-anchor="start" x="8" y="-349.6" font-family="Times,serif" font-size="13.00">Models diagram</text>
<text text-anchor="start" x="8" y="-335.6" font-family="Times,serif" font-size="13.00">Date: Aug 28 2017 &#45; 23:16</text>
<text text-anchor="start" x="8" y="-321.6" font-family="Times,serif" font-size="13.00">Migration version: 20170828222531</text>
<text text-anchor="start" x="8" y="-307.6" font-family="Times,serif" font-size="13.00">Generated by RailRoady 1.5.3</text>
<text text-anchor="start" x="8" y="-293.6" font-family="Times,serif" font-size="13.00">http://railroady.prestonlee.com</text>
</g>
<!-- ApplicationRecord -->
<g id="node2" class="node"><title>ApplicationRecord</title>
<ellipse fill="none" stroke="black" cx="309" cy="-325" rx="77.0154" ry="18"/>
<text text-anchor="middle" x="309" y="-321.3" font-family="Times,serif" font-size="14.00">ApplicationRecord</text>
</g>
<!-- Klass -->
<g id="node3" class="node"><title>Klass</title>
<path fill="none" stroke="black" d="M416,-257C416,-257 636,-257 636,-257 642,-257 648,-263 648,-269 648,-269 648,-381 648,-381 648,-387 642,-393 636,-393 636,-393 416,-393 416,-393 410,-393 404,-387 404,-381 404,-381 404,-269 404,-269 404,-263 410,-257 416,-257"/>
<text text-anchor="middle" x="526" y="-377.8" font-family="Times,serif" font-size="14.00">Klass</text>
<polyline fill="none" stroke="black" points="404,-370 648,-370 "/>
<text text-anchor="start" x="412" y="-354.8" font-family="Times,serif" font-size="14.00">id :bigint</text>
<text text-anchor="start" x="412" y="-339.8" font-family="Times,serif" font-size="14.00">name :character varying</text>
<text text-anchor="start" x="412" y="-324.8" font-family="Times,serif" font-size="14.00">subject :character varying</text>
<text text-anchor="start" x="412" y="-309.8" font-family="Times,serif" font-size="14.00">level :integer</text>
<text text-anchor="start" x="412" y="-294.8" font-family="Times,serif" font-size="14.00">credits :integer</text>
<text text-anchor="start" x="412" y="-279.8" font-family="Times,serif" font-size="14.00">created_at :timestamp without time zone</text>
<text text-anchor="start" x="412" y="-264.8" font-family="Times,serif" font-size="14.00">updated_at :timestamp without time zone</text>
</g>
<!-- Registration -->
<g id="node4" class="node"><title>Registration</title>
<path fill="none" stroke="black" d="M564,-1C564,-1 784,-1 784,-1 790,-1 796,-7 796,-13 796,-13 796,-155 796,-155 796,-161 790,-167 784,-167 784,-167 564,-167 564,-167 558,-167 552,-161 552,-155 552,-155 552,-13 552,-13 552,-7 558,-1 564,-1"/>
<text text-anchor="middle" x="674" y="-151.8" font-family="Times,serif" font-size="14.00">Registration</text>
<polyline fill="none" stroke="black" points="552,-144 796,-144 "/>
<text text-anchor="start" x="560" y="-128.8" font-family="Times,serif" font-size="14.00">id :bigint</text>
<text text-anchor="start" x="560" y="-113.8" font-family="Times,serif" font-size="14.00">semester :character varying</text>
<text text-anchor="start" x="560" y="-98.8" font-family="Times,serif" font-size="14.00">year :integer</text>
<text text-anchor="start" x="560" y="-83.8" font-family="Times,serif" font-size="14.00">capacity :integer</text>
<text text-anchor="start" x="560" y="-68.8" font-family="Times,serif" font-size="14.00">is_open :boolean</text>
<text text-anchor="start" x="560" y="-53.8" font-family="Times,serif" font-size="14.00">klass_id :bigint</text>
<text text-anchor="start" x="560" y="-38.8" font-family="Times,serif" font-size="14.00">teacher_id :bigint</text>
<text text-anchor="start" x="560" y="-23.8" font-family="Times,serif" font-size="14.00">created_at :timestamp without time zone</text>
<text text-anchor="start" x="560" y="-8.8" font-family="Times,serif" font-size="14.00">updated_at :timestamp without time zone</text>
</g>
<!-- Klass&#45;&gt;Registration -->
<g id="edge1" class="edge"><title>Klass&#45;&gt;Registration</title>
<path fill="none" stroke="#a72f0c" d="M571.905,-249.869C586.38,-226.494 602.54,-200.398 617.656,-175.988"/>
<ellipse fill="none" stroke="#a72f0c" cx="569.726" cy="-253.388" rx="4.00002" ry="4.00002"/>
<polygon fill="#a72f0c" stroke="#a72f0c" points="617.689,-175.934 626.78,-169.801 620.322,-171.683 622.954,-167.432 622.954,-167.432 622.954,-167.432 620.322,-171.683 619.128,-165.063 617.689,-175.934 617.689,-175.934"/>
</g>
<!-- User -->
<g id="node5" class="node"><title>User</title>
<path fill="none" stroke="black" d="M678.5,-204.5C678.5,-204.5 967.5,-204.5 967.5,-204.5 973.5,-204.5 979.5,-210.5 979.5,-216.5 979.5,-216.5 979.5,-433.5 979.5,-433.5 979.5,-439.5 973.5,-445.5 967.5,-445.5 967.5,-445.5 678.5,-445.5 678.5,-445.5 672.5,-445.5 666.5,-439.5 666.5,-433.5 666.5,-433.5 666.5,-216.5 666.5,-216.5 666.5,-210.5 672.5,-204.5 678.5,-204.5"/>
<text text-anchor="middle" x="823" y="-430.3" font-family="Times,serif" font-size="14.00">User</text>
<polyline fill="none" stroke="black" points="666.5,-422.5 979.5,-422.5 "/>
<text text-anchor="start" x="674.5" y="-407.3" font-family="Times,serif" font-size="14.00">id :bigint</text>
<text text-anchor="start" x="674.5" y="-392.3" font-family="Times,serif" font-size="14.00">email :character varying</text>
<text text-anchor="start" x="674.5" y="-377.3" font-family="Times,serif" font-size="14.00">encrypted_password :character varying</text>
<text text-anchor="start" x="674.5" y="-362.3" font-family="Times,serif" font-size="14.00">reset_password_token :character varying</text>
<text text-anchor="start" x="674.5" y="-347.3" font-family="Times,serif" font-size="14.00">reset_password_sent_at :timestamp without time zone</text>
<text text-anchor="start" x="674.5" y="-332.3" font-family="Times,serif" font-size="14.00">remember_created_at :timestamp without time zone</text>
<text text-anchor="start" x="674.5" y="-317.3" font-family="Times,serif" font-size="14.00">sign_in_count :integer</text>
<text text-anchor="start" x="674.5" y="-302.3" font-family="Times,serif" font-size="14.00">current_sign_in_at :timestamp without time zone</text>
<text text-anchor="start" x="674.5" y="-287.3" font-family="Times,serif" font-size="14.00">last_sign_in_at :timestamp without time zone</text>
<text text-anchor="start" x="674.5" y="-272.3" font-family="Times,serif" font-size="14.00">current_sign_in_ip :inet</text>
<text text-anchor="start" x="674.5" y="-257.3" font-family="Times,serif" font-size="14.00">last_sign_in_ip :inet</text>
<text text-anchor="start" x="674.5" y="-242.3" font-family="Times,serif" font-size="14.00">created_at :timestamp without time zone</text>
<text text-anchor="start" x="674.5" y="-227.3" font-family="Times,serif" font-size="14.00">updated_at :timestamp without time zone</text>
<text text-anchor="start" x="674.5" y="-212.3" font-family="Times,serif" font-size="14.00">role :character varying</text>
</g>
<!-- User&#45;&gt;Registration -->
<g id="edge2" class="edge"><title>User&#45;&gt;Registration</title>
<path fill="none" stroke="#b0d7db" d="M743.914,-197.144C739.483,-190.036 735.073,-182.963 730.749,-176.027"/>
<ellipse fill="none" stroke="#b0d7db" cx="746.166" cy="-200.756" rx="4.00002" ry="4.00002"/>
<polygon fill="#b0d7db" stroke="#b0d7db" points="730.611,-175.806 729.14,-164.939 727.966,-171.563 725.321,-167.32 725.321,-167.32 725.321,-167.32 727.966,-171.563 721.502,-169.701 730.611,-175.806 730.611,-175.806"/>
</g>
</g>
</svg>
